<svg xmlns="http://www.w3.org/2000/svg" viewBox="0 0 100 100" width="100" height="100">
  <!-- Background Circle (Optional, remove if you want transparent) -->
  <circle cx="50" cy="50" r="48" fill="#FFF5F2" />
  
  <!-- Wallet Body -->
  <path d="M25 35C25 32.2386 27.2386 30 30 30H70C72.7614 30 75 32.2386 75 35V65C75 67.7614 72.7614 70 70 70H30C27.2386 70 25 67.7614 25 65V35Z" fill="#FF5E3A" />
  
  <!-- Wallet Flap -->
  <path d="M60 42H75V58H60C55.5817 58 52 54.4183 52 50C52 45.5817 55.5817 42 60 42Z" fill="#E04F2E" />
  
  <!-- Wallet Button -->
  <circle cx="62" cy="50" r="3" fill="#FFFFFF" />
  
  <!-- Expense/Growth Trend Line (Tracking) -->
  <path d="M15 65L38 45L52 55L80 22" fill="none" stroke="#22C55E" stroke-width="5" stroke-linecap="round" stroke-linejoin="round" />
  
  <!-- Arrow Head -->
  <path d="M70 22H80V32" fill="none" stroke="#22C55E" stroke-width="5" stroke-linecap="round" stroke-linejoin="round" />
</svg>
